<?xml version="1.0" standalone="no"?>
<!DOCTYPE svg PUBLIC "-//W3C//DTD SVG 20010904//EN"
 "http://www.w3.org/TR/2001/REC-SVG-20010904/DTD/svg10.dtd">
<svg version="1.0" xmlns="http://www.w3.org/2000/svg"
 width="650.000000pt" height="650.000000pt" viewBox="0 0 650.000000 650.000000"
 preserveAspectRatio="xMidYMid meet">
<metadata>
Created by potrace 1.11, written by Peter Selinger 2001-2013
</metadata>
<g transform="translate(0.000000,650.000000) scale(0.100000,-0.100000)"
fill="#000000" stroke="none">
<path d="M1873 6296 c-93 -44 -132 -128 -193 -416 -29 -138 -55 -204 -97 -251
-50 -55 -85 -64 -217 -53 -292 23 -456 5 -518 -56 -52 -53 -23 -83 200 -206
182 -100 249 -153 275 -216 28 -69 20 -87 -65 -134 -45 -25 -85 -57 -105 -82
-83 -108 -101 -255 -47 -387 58 -145 159 -288 320 -454 l106 -110 -50 -50
c-60 -59 -77 -104 -69 -178 8 -75 53 -147 158 -252 93 -94 164 -141 265 -177
72 -27 164 -33 164 -11 0 8 -15 58 -34 113 -62 177 -139 517 -150 659 -16 203
-18 320 -7 415 18 160 32 220 55 241 29 28 288 152 376 182 251 83 434 72 539
-34 71 -71 120 -217 128 -380 8 -155 -8 -201 -127 -379 -77 -113 -83 -137 -78
-306 4 -152 10 -175 69 -232 58 -56 132 -72 338 -72 97 0 205 5 241 10 103 15
110 39 54 195 -89 249 -165 491 -184 586 -28 136 -25 262 9 332 43 88 231 211
415 271 197 65 430 54 490 -22 41 -52 110 -169 152 -257 141 -302 132 -606
-32 -1115 -27 -85 -33 -115 -24 -123 6 -7 45 -12 93 -12 70 0 91 4 141 29 118
58 213 188 255 350 23 88 28 212 10 267 -16 50 -72 96 -134 110 l-53 12 127
151 c69 83 150 173 180 201 90 84 111 155 72 241 -39 86 -160 189 -327 277
-51 27 -106 64 -125 83 -50 52 -46 100 23 256 80 178 92 224 92 353 1 121 -9
153 -56 188 -24 18 -31 19 -73 7 -47 -13 -141 -73 -275 -173 -41 -31 -106 -73
-145 -94 -159 -84 -246 -35 -449 251 -183 256 -306 390 -402 437 -73 35 -85
23 -129 -116 -25 -81 -45 -126 -67 -151 -63 -72 -161 -97 -269 -69 -80 20
-117 42 -257 154 -62 50 -140 106 -174 126 -85 50 -199 86 -288 92 -65 4 -82
1 -127 -21z"/>
<path d="M2142 4465 c-50 -63 -51 -147 -3 -207 18 -22 25 -23 165 -25 l145 -2
20 26 c49 61 49 146 2 204 -18 22 -26 24 -163 27 l-145 4 -21 -27z"/>
<path d="M3675 4481 c-23 -4 -35 -17 -52 -51 -29 -57 -29 -84 3 -148 l25 -51
151 2 c144 2 151 3 169 25 48 60 47 144 -2 206 -20 26 -22 26 -142 25 -67 -1
-135 -4 -152 -8z"/>
<path d="M2650 3014 c-71 -19 -101 -48 -102 -100 -1 -122 170 -277 367 -330
33 -9 114 -19 181 -21 140 -6 234 12 349 69 83 40 224 168 254 232 25 51 27
92 5 100 -29 11 -259 36 -470 51 -269 19 -511 19 -584 -1z"/>
<path d="M3859 2633 c-8 -15 -47 -73 -88 -128 -235 -317 -498 -495 -731 -495
-142 0 -287 73 -444 221 l-61 57 -5 -360 -5 -361 -120 -22 c-152 -28 -263 -59
-323 -89 -70 -35 -138 -104 -151 -151 -24 -88 -7 -281 33 -377 9 -21 16 -41
16 -45 0 -5 -24 -17 -52 -27 -51 -18 -156 -64 -323 -141 -229 -106 -561 -301
-783 -460 -100 -71 -322 -245 -322 -251 0 -2 1350 -4 3000 -4 l3000 0 0 213 0
213 -50 81 c-112 182 -314 352 -523 439 -153 64 -191 77 -332 114 -242 63
-465 100 -919 152 l-110 13 5 60 c25 345 -46 524 -238 599 -68 27 -73 28 -154
17 -46 -6 -123 -20 -171 -30 l-86 -18 -6 61 c-12 127 -26 378 -31 555 -3 101
-6 186 -8 188 -2 1 -10 -9 -18 -24z"/>
</g>
</svg>
