<?xml version="1.0" standalone="no"?>
<!DOCTYPE svg PUBLIC "-//W3C//DTD SVG 20010904//EN"
 "http://www.w3.org/TR/2001/REC-SVG-20010904/DTD/svg10.dtd">
<svg version="1.0" xmlns="http://www.w3.org/2000/svg"
 width="260.000000pt" height="260.000000pt" viewBox="0 0 260.000000 260.000000"
 preserveAspectRatio="xMidYMid meet">
<metadata>
Created by potrace 1.11, written by Peter Selinger 2001-2013
</metadata>
<g transform="translate(0.000000,260.000000) scale(0.100000,-0.100000)"
fill="#000000" stroke="none">
<path d="M1426 2424 c-21 -7 -110 -23 -197 -34 -87 -11 -177 -28 -201 -37
-121 -49 -207 -122 -257 -221 -38 -74 -51 -153 -51 -303 l0 -117 -31 -12 c-27
-12 -30 -17 -27 -53 3 -35 7 -41 38 -51 l35 -11 6 -170 c6 -195 19 -242 93
-342 54 -73 95 -109 170 -144 l58 -28 -38 -6 c-168 -27 -253 -78 -270 -164 -4
-17 -14 -33 -25 -36 -10 -3 -53 -29 -95 -57 -83 -53 -168 -134 -212 -200 l-27
-41 75 -69 c122 -112 270 -202 402 -247 l58 -20 0 197 c0 108 4 202 8 209 6 9
16 8 40 -7 l32 -19 2 -203 3 -203 65 -12 c195 -37 400 -22 600 43 177 57 312
136 449 262 l75 68 -34 50 c-19 27 -55 70 -81 96 -47 47 -182 141 -219 153
-10 3 -21 18 -25 33 -16 76 -87 131 -197 153 -112 22 -109 19 -51 44 95 43
188 148 236 267 17 44 22 82 27 223 l5 170 35 11 c31 10 35 16 38 51 3 36 1
40 -32 52 l-34 14 -4 176 c-4 163 -6 180 -30 232 -33 69 -65 108 -139 165 -54
41 -58 47 -56 82 2 40 -1 41 -57 27 -21 -6 -27 -5 -22 4 11 17 -22 25 -50 13
-21 -10 -24 -9 -24 8 0 23 -11 24 -64 4z m164 -284 c6 -11 42 -45 80 -75 82
-66 114 -119 130 -221 6 -38 13 -78 15 -90 4 -20 3 -21 -78 -8 -45 7 -93 17
-107 22 -27 11 -82 16 -143 13 -29 -1 -40 -6 -46 -22 -9 -25 -89 -59 -141 -59
-47 0 -137 39 -143 62 -4 13 -15 18 -44 19 -61 3 -115 -2 -143 -13 -23 -9
-192 -38 -197 -34 -6 5 28 138 47 190 17 45 41 79 103 143 l80 83 136 -5 c75
-3 192 -2 261 3 69 5 137 10 152 11 18 0 31 -6 38 -19z m-450 -479 c92 -47 72
-184 -34 -232 -50 -23 -190 -26 -239 -5 -63 26 -94 117 -64 188 17 39 55 57
127 59 19 0 44 4 55 9 28 13 113 2 155 -19z m538 10 c40 -6 81 -15 91 -21 26
-13 45 -73 37 -115 -16 -82 -87 -124 -214 -125 -127 0 -174 29 -188 118 -13
80 23 132 103 152 39 9 50 9 171 -9z m-344 -81 c22 -8 26 -16 26 -52 1 -68 31
-122 87 -155 44 -26 56 -28 148 -28 106 0 157 17 207 67 l21 21 -7 -44 c-18
-112 -48 -159 -128 -200 -57 -29 -79 -22 -104 31 -12 25 -31 53 -42 63 -27 24
-88 46 -130 47 -32 0 -32 0 -16 25 l16 25 -112 0 -112 0 16 -25 c16 -25 16
-25 -16 -25 -42 -1 -103 -23 -130 -47 -11 -10 -30 -38 -42 -63 -25 -53 -47
-60 -104 -31 -78 40 -105 81 -127 191 -7 34 -7 34 11 19 48 -42 87 -53 184
-54 84 0 101 3 153 28 68 34 107 90 107 155 0 57 34 75 94 52z m-16 -337 c-10
-2 -26 -2 -35 0 -10 3 -2 5 17 5 19 0 27 -2 18 -5z m-162 -134 c38 -40 84 -59
144 -59 90 0 160 50 184 130 l12 43 17 -36 c9 -19 17 -48 17 -65 0 -38 -49
-105 -90 -122 -30 -12 -37 -12 -71 8 -48 28 -90 28 -139 0 l-40 -23 -37 20
c-45 24 -83 77 -83 117 0 16 7 45 16 66 l16 37 13 -44 c8 -24 26 -56 41 -72z
m304 107 c0 -3 -7 -12 -16 -20 -23 -23 -255 -23 -278 0 -9 8 -16 17 -16 20 0
2 70 4 155 4 85 0 155 -2 155 -4z m-290 -353 c77 -18 238 -13 312 10 l47 15 7
-45 c4 -25 4 -78 2 -119 -7 -104 -40 -157 -128 -202 -56 -29 -73 -33 -120 -30
-104 7 -183 65 -216 155 -14 40 -18 159 -8 212 5 24 11 31 23 26 9 -4 45 -13
81 -22z m498 -604 c-3 -160 -5 -183 -20 -193 -13 -8 -23 -8 -35 0 -16 10 -18
32 -21 188 l-2 176 32 20 c27 16 34 17 40 5 5 -8 7 -96 6 -196z"/>
<path d="M1012 1604 c-31 -21 -30 -69 2 -90 36 -23 80 -1 84 42 5 48 -46 76
-86 48z"/>
<path d="M1530 1607 c-19 -10 -25 -20 -25 -47 0 -28 5 -37 28 -48 24 -12 31
-11 53 2 32 21 33 69 2 90 -27 19 -26 19 -58 3z"/>
</g>
</svg>
