<?xml version="1.0" standalone="no"?>
<!DOCTYPE svg PUBLIC "-//W3C//DTD SVG 20010904//EN"
 "http://www.w3.org/TR/2001/REC-SVG-20010904/DTD/svg10.dtd">
<svg version="1.0" xmlns="http://www.w3.org/2000/svg"
 width="280.000000pt" height="280.000000pt" viewBox="0 0 280.000000 280.000000"
 preserveAspectRatio="xMidYMid meet">
<metadata>
Created by potrace 1.11, written by Peter Selinger 2001-2013
</metadata>
<g transform="translate(0.000000,280.000000) scale(0.100000,-0.100000)"
fill="#000000" stroke="none">
<path d="M1546 2618 c-32 -18 -116 -36 -223 -48 -134 -14 -206 -34 -272 -73
-174 -103 -241 -250 -241 -526 l0 -130 -30 -16 c-25 -13 -30 -22 -30 -50 0
-30 4 -35 28 -41 15 -3 33 -7 40 -10 9 -2 12 -44 12 -162 0 -176 11 -236 62
-339 111 -227 387 -340 667 -273 113 27 189 70 260 146 116 123 151 233 151
471 l0 163 24 0 c44 0 56 10 56 46 0 28 -5 36 -36 52 l-36 19 -2 174 c-2 148
-5 184 -24 240 -28 84 -63 132 -146 198 -44 35 -65 59 -62 68 4 8 9 26 13 40
6 24 4 26 -23 20 -16 -4 -39 -9 -51 -13 -18 -5 -21 -3 -16 15 6 25 -10 27 -47
6 -34 -20 -43 -18 -30 4 5 11 10 22 10 25 0 10 -34 6 -54 -6z m157 -321 c14
-19 48 -51 76 -72 57 -43 91 -90 111 -149 11 -34 41 -209 37 -212 -6 -4 -171
27 -211 40 -83 27 -181 16 -174 -20 2 -11 -16 -22 -70 -40 l-73 -24 -71 25
c-40 14 -73 25 -74 25 -2 0 -1 7 2 15 14 36 -94 46 -184 16 -31 -10 -82 -22
-112 -25 -30 -4 -65 -10 -78 -13 -22 -5 -23 -4 -17 33 12 73 45 185 67 227 11
23 55 77 96 119 l75 77 141 -5 c78 -3 195 -1 261 4 66 5 132 10 146 11 19 1
34 -8 52 -32z m-509 -487 c58 -13 90 -41 100 -88 28 -133 -78 -223 -248 -210
-121 10 -161 52 -161 166 0 68 2 75 28 98 15 13 40 24 55 25 15 0 36 4 47 9
27 11 130 12 179 0z m634 -8 c57 -13 80 -36 88 -89 18 -122 -71 -203 -223
-203 -111 0 -176 44 -189 126 -14 96 18 155 97 174 40 10 166 6 227 -8z m-382
-80 c6 -4 14 -35 17 -70 7 -80 35 -124 101 -157 42 -21 64 -25 135 -25 95 0
153 20 205 68 l28 27 -7 -59 c-14 -116 -50 -177 -127 -217 -65 -33 -86 -27
-113 35 -43 98 -84 114 -285 114 -201 0 -242 -16 -285 -114 -27 -62 -48 -68
-113 -35 -76 39 -114 103 -128 214 l-7 52 23 -24 c41 -43 97 -61 190 -61 69 0
95 5 135 24 86 41 125 97 125 181 0 25 5 45 13 48 19 8 81 8 93 -1z m113 -378
c2 -2 -70 -3 -160 -2 -122 1 -146 3 -94 8 66 6 245 1 254 -6z m-339 -19 c-28
-34 28 -132 94 -165 54 -26 118 -26 172 0 66 33 122 131 94 165 -8 9 -8 15 -2
15 19 0 54 -60 59 -100 9 -64 -46 -143 -115 -165 -18 -5 -30 -1 -49 17 -35 33
-111 33 -146 0 -27 -25 -49 -24 -95 6 -30 20 -72 92 -72 125 0 32 17 77 37 99
19 22 41 24 23 3z m340 -4 c0 -5 -7 -17 -16 -25 -23 -23 -255 -23 -278 0 -9 8
-16 20 -16 25 0 5 66 9 155 9 89 0 155 -4 155 -9z"/>
<path d="M1100 1720 c-11 -11 -20 -29 -20 -40 0 -11 9 -29 20 -40 11 -11 29
-20 40 -20 11 0 29 9 40 20 11 11 20 29 20 40 0 11 -9 29 -20 40 -11 11 -29
20 -40 20 -11 0 -29 -9 -40 -20z"/>
<path d="M1620 1720 c-11 -11 -20 -29 -20 -40 0 -11 9 -29 20 -40 11 -11 29
-20 40 -20 11 0 29 9 40 20 11 11 20 29 20 40 0 11 -9 29 -20 40 -11 11 -29
20 -40 20 -11 0 -29 -9 -40 -20z"/>
<path d="M805 733 c-22 -12 -44 -24 -49 -26 -15 -5 21 -62 67 -104 45 -41 71
-58 160 -100 l47 -22 0 22 c0 15 -15 32 -45 52 -53 36 -108 105 -126 160 l-14
41 -40 -23z"/>
<path d="M1941 713 c-19 -54 -74 -123 -126 -158 -30 -20 -45 -37 -45 -52 l0
-22 48 22 c88 42 114 59 159 100 40 36 80 94 71 102 -5 4 -87 45 -91 45 -1 0
-9 -17 -16 -37z"/>
<path d="M1100 472 c0 -14 23 -21 115 -38 116 -20 123 -16 20 11 -49 13 -100
27 -112 31 -13 3 -23 2 -23 -4z"/>
<path d="M1637 465 c-20 -8 -64 -19 -97 -26 -84 -16 -67 -24 22 -9 89 14 138
29 138 41 0 12 -17 10 -63 -6z"/>
</g>
</svg>
